<svg xmlns="http://www.w3.org/2000/svg" width="25" height="25" viewBox="0 0 25 25">
  <defs>
    <style>
      .cls-1 {
        fill: #7f7f7f;
        fill-rule: evenodd;
      }
    </style>
  </defs>
  <path id="Shape_2_copy" data-name="Shape 2 copy" class="cls-1" d="M886.474,988.015a12.515,12.515,0,1,1,8.85-3.666,12.428,12.428,0,0,1-8.85,3.666h0Zm0-23.919a11.4,11.4,0,1,0,8.063,3.339,11.326,11.326,0,0,0-8.063-3.339h0Zm0,23.919h0a12.428,12.428,0,0,1-8.846-3.665q-0.461-.462-0.864-0.958a0.553,0.553,0,0,1-.052-0.624,2.451,2.451,0,0,1,.958-0.974,20.308,20.308,0,0,1,5.8-1.753l-0.1-.723a2.113,2.113,0,0,1-.886-1.382c-0.03-.269-0.06-0.538-0.09-0.809a0.948,0.948,0,0,1-.772-0.831l-0.225-2.162a0.964,0.964,0,0,1,.538-0.965l-0.1-.874a3.7,3.7,0,0,1,.97-3.306,5.839,5.839,0,0,1,7.36.017,3.691,3.691,0,0,1,.952,3.28l-0.1.9a0.935,0.935,0,0,1,.54.946l-0.226,2.161a0.956,0.956,0,0,1-.772.848l-0.095.8a2.1,2.1,0,0,1-.875,1.371l-0.105.723a20.21,20.21,0,0,1,5.775,1.744,2.459,2.459,0,0,1,.979.988,0.552,0.552,0,0,1-.053.622,12.213,12.213,0,0,1-.861.954,12.44,12.44,0,0,1-8.85,3.666h0Zm-8.581-5q0.25,0.285.52,0.557a11.4,11.4,0,0,0,16.126,0c0.179-.179.352-0.363,0.516-0.551a1.1,1.1,0,0,0-.292-0.236,19.2,19.2,0,0,0-5.974-1.71,0.554,0.554,0,0,1-.483-0.629l0.22-1.518a0.556,0.556,0,0,1,.248-0.385,1.26,1.26,0,0,0,.586-0.7l0.169-1.429a0.556,0.556,0,0,1,.723-0.462l0.179-1.713a0.491,0.491,0,0,1-.384-0.094,0.538,0.538,0,0,1-.2-0.53l0.164-1.429a2.671,2.671,0,0,0-.605-2.365,4.748,4.748,0,0,0-5.845-.018,2.673,2.673,0,0,0-.623,2.39l0.16,1.424a0.558,0.558,0,0,1-.242.524,0.515,0.515,0,0,1-.34.093l0.179,1.723a0.471,0.471,0,0,1,.4-0.026,0.531,0.531,0,0,1,.322.483c0.057,0.473.109,0.939,0.161,1.413a1.23,1.23,0,0,0,.6.711,0.556,0.556,0,0,1,.252.39l0.213,1.512a0.556,0.556,0,0,1-.484.631,19.275,19.275,0,0,0-6,1.72,1.009,1.009,0,0,0-.272.223h0Z" transform="translate(-873.969 -963)"/>
</svg>
