<svg id="Layer_1" data-name="Layer 1" xmlns="http://www.w3.org/2000/svg" width="21.99" height="15.96" viewBox="0 0 21.99 15.96"><defs><style>.cls-1,.cls-2{fill:none;}.cls-2{stroke:#7f7f7f;stroke-linecap:round;stroke-linejoin:round;stroke-width:0;}.cls-3{fill:#7f7f7f;}</style></defs><title>input-mail</title><polygon class="cls-1" points="20.98 13.49 20.98 2.47 14.91 7.98 20.98 13.49"/><path class="cls-1" d="M11,10.17l9.75-8.85h0a.86.86,0,0,0-.18-.13A.84.84,0,0,0,20.14,1H1.88a.86.86,0,0,0-.59.24l0,0,0,0Z" transform="translate(-0.01 -0.01)"/><path class="cls-1" d="M14.17,8.67l-2.83,2.57a.51.51,0,0,1-.33.13.52.52,0,0,1-.34-.13L7.85,8.67l-6.6,6v0l.1.07a.83.83,0,0,0,.33.16.84.84,0,0,0,.19,0H20.13a.86.86,0,0,0,.34-.07l0,0a.86.86,0,0,0,.24-.18h0Z" transform="translate(-0.01 -0.01)"/><polygon class="cls-1" points="7.08 7.98 1.01 2.47 1.01 13.49 7.08 7.98"/><path class="cls-2" d="M20.57,1.18a.86.86,0,0,1,.18.13" transform="translate(-0.01 -0.01)"/><path class="cls-2" d="M1.27,1.29l0,0" transform="translate(-0.01 -0.01)"/><path class="cls-3" d="M21.88,1.25s0,0,0,0v0a1.88,1.88,0,0,0-.24-.43L21.55.69a1.89,1.89,0,0,0-.32-.3l0,0a1.9,1.9,0,0,0-.42-.21l-.14,0A1.88,1.88,0,0,0,20.2,0H1.81a1.88,1.88,0,0,0-.41.07l-.15,0A1.89,1.89,0,0,0,.83.34l0,0a1.89,1.89,0,0,0-.32.3L.38.78a1.88,1.88,0,0,0-.24.43v0s0,0,0,0A1.87,1.87,0,0,0,0,1.91V14.06a1.87,1.87,0,0,0,.12.65s0,0,0,0v0a1.88,1.88,0,0,0,.25.44l.07.08a1.89,1.89,0,0,0,.35.33h0a1.89,1.89,0,0,0,.45.22l.1,0a1.88,1.88,0,0,0,.51.08H20.15a1.88,1.88,0,0,0,.49-.08l.11,0a1.89,1.89,0,0,0,.44-.22h0a1.89,1.89,0,0,0,.35-.33l.06-.08a1.88,1.88,0,0,0,.25-.44v0s0,0,0,0a1.88,1.88,0,0,0,.12-.66V1.91A1.87,1.87,0,0,0,21.88,1.25ZM21,13.49,14.92,8,21,2.48ZM1.29,1.28A.86.86,0,0,1,1.88,1H20.14a.84.84,0,0,1,.44.14.86.86,0,0,1,.18.13h0L11,10.17,1.25,1.32l0,0ZM7.09,8,1,13.49v-11Zm13.43,6.85,0,0a.86.86,0,0,1-.34.07H1.88a.84.84,0,0,1-.19,0,.83.83,0,0,1-.33-.16l-.1-.07v0l6.6-6,2.82,2.56a.52.52,0,0,0,.34.13.51.51,0,0,0,.33-.13l2.83-2.57,6.59,6h0A.86.86,0,0,1,20.52,14.84Z" transform="translate(-0.01 -0.01)"/><path class="cls-2" d="M1.36,14.74a.83.83,0,0,0,.33.16" transform="translate(-0.01 -0.01)"/><path class="cls-2" d="M20.52,14.84l0,0" transform="translate(-0.01 -0.01)"/><path class="cls-2" d="M20.76,14.66a.86.86,0,0,1-.24.18" transform="translate(-0.01 -0.01)"/><path class="cls-2" d="M21.63.78,21.55.69" transform="translate(-0.01 -0.01)"/><path class="cls-2" d="M21.63.78a1.88,1.88,0,0,1,.24.43" transform="translate(-0.01 -0.01)"/><path class="cls-2" d="M20.13,14.94a.86.86,0,0,0,.34-.07" transform="translate(-0.01 -0.01)"/><path class="cls-2" d="M1.26,14.67l.1.07" transform="translate(-0.01 -0.01)"/><path class="cls-2" d="M21.23.38a1.89,1.89,0,0,1,.32.3" transform="translate(-0.01 -0.01)"/></svg>