<svg id="Calque_2" data-name="Calque 2" xmlns="http://www.w3.org/2000/svg" width="81.94" height="43" viewBox="0 0 81.94 43"><defs><style>.cls-1{fill:#394553;}</style></defs><title>mailer</title><path class="cls-1" d="M245.75,162.56a4.63,4.63,0,0,0-3.51-1.56H192.93a2,2,0,0,0-1.35,3.47l22.83,21a2,2,0,0,0,2.53.15l25.72-18.59-4.44,31.69a1.58,1.58,0,0,1-1.44,1.25H187.91a2,2,0,1,0,0,4h48.87a5.54,5.54,0,0,0,5.4-4.69l4.63-33.06A4.63,4.63,0,0,0,245.75,162.56Zm-29.83,18.89L198.06,165h40.62Z" transform="translate(-164.91 -161)"/><path class="cls-1" d="M204.91,192a2,2,0,0,0-2-2h-24a2,2,0,1,0,0,4h24A2,2,0,0,0,204.91,192Z" transform="translate(-164.91 -161)"/><path class="cls-1" d="M199.91,183a2,2,0,0,0-2-2h-31a2,2,0,1,0,0,4h31A2,2,0,0,0,199.91,183Z" transform="translate(-164.91 -161)"/><path class="cls-1" d="M175.91,176h14a2,2,0,0,0,0-4h-14a2,2,0,1,0,0,4Z" transform="translate(-164.91 -161)"/></svg>