<?xml version="1.0" standalone="no"?>
<!DOCTYPE svg PUBLIC "-//W3C//DTD SVG 20010904//EN"
 "http://www.w3.org/TR/2001/REC-SVG-20010904/DTD/svg10.dtd">
<svg version="1.0" xmlns="http://www.w3.org/2000/svg"
 width="512.000000pt" height="512.000000pt" viewBox="0 0 512.000000 512.000000"
 preserveAspectRatio="xMidYMid meet">
<metadata>
Created by potrace 1.11, written by Peter Selinger 2001-2013
</metadata>
<g transform="translate(0.000000,512.000000) scale(0.100000,-0.100000)"
fill="#000000" stroke="none">
<path d="M2378 4080 c-114 -12 -267 -44 -370 -76 -152 -48 -398 -163 -398
-186 0 -13 734 -2341 761 -2413 87 -234 301 -234 388 0 46 124 762 2408 758
2419 -12 31 -328 165 -482 205 -193 49 -469 70 -657 51z"/>
<path d="M1149 3443 c-149 -156 -296 -411 -378 -658 -156 -469 -127 -978 80
-1425 23 -50 40 -92 38 -93 -2 -2 -38 -16 -79 -31 -283 -107 -442 -250 -427
-383 31 -277 716 -513 1681 -579 l98 -7 -51 64 c-107 132 -97 100 -526 1679
-218 800 -396 1459 -398 1463 -1 4 -19 -9 -38 -30z"/>
<path d="M3547 2017 c-431 -1586 -421 -1554 -528 -1686 l-51 -64 98 7 c597 41
1094 146 1399 296 296 146 363 322 184 484 -62 56 -206 135 -329 182 -41 15
-77 29 -79 31 -2 1 15 43 38 93 86 185 147 408 170 622 45 407 -58 854 -278
1208 -55 89 -162 230 -203 267 l-23 22 -398 -1462z"/>
</g>
</svg>
