<svg id="Layer_1" data-name="Layer 1" xmlns="http://www.w3.org/2000/svg" width="25" height="26.99" viewBox="0 0 25 26.99"><defs><style>.cls-1{fill:#cd71e8;}</style></defs><title>icon-viber</title><path class="cls-1" d="M22.18,2.63C21.52,2,18.88,0,13,0,13,0,6-.41,2.64,2.77.75,4.71.09,7.53,0,11S-.15,21.11,6,22.89H6v2.72s0,1.1.67,1.32,1.36-.56,2.18-1.47c.45-.49,1.07-1.22,1.53-1.78a23.37,23.37,0,0,0,7.85-.59c.85-.28,5.69-.92,6.47-7.49C25.56,8.84,24.35,4.56,22.18,2.63Zm.72,12.5c-.66,5.48-4.58,5.83-5.31,6.07a21.54,21.54,0,0,1-6.76.59L6.94,26.1v-5h0c-5.23-1.49-5.06-7.07-5-10S2.5,5.8,4.1,4.19C7,1.53,12.87,1.92,12.87,1.92c5,0,7.38,1.56,7.93,2.07C22.64,5.61,23.58,9.47,22.89,15.13Z"/><path class="cls-1" d="M17.21,15a15.12,15.12,0,0,0-1.27-.83,1.1,1.1,0,0,0-1.42.2L14,15a.78.78,0,0,1-.77.26,5.41,5.41,0,0,1-2.38-1.46A4.91,4.91,0,0,1,9.35,11.3v-.06a1,1,0,0,1,.16-.77l0,0c.34-.32,1-.71,1.07-1.08.25-.65-.84-2-1-2.23A10.66,10.66,0,0,0,8.52,5.89a1,1,0,0,0-1.25-.11l0,0c-1.37.92-1.86,1.46-1.73,2.25l.07.32a17.16,17.16,0,0,0,4,6.59,17.46,17.46,0,0,0,6.21,4.12,1.71,1.71,0,0,0,1.7-.47h0a5.42,5.42,0,0,0,1.06-1.34h0a1,1,0,0,0-.21-1.31S17.6,15.27,17.21,15Z"/><path class="cls-1" d="M13.14,9.08a.16.16,0,0,0,.15.17,1.74,1.74,0,0,1,1.21.48A2,2,0,0,1,15,11a.16.16,0,0,0,.16.15h0a.16.16,0,0,0,.15-.17,2.28,2.28,0,0,0-.54-1.5,2,2,0,0,0-1.42-.58A.16.16,0,0,0,13.14,9.08Z"/><path class="cls-1" d="M16.51,11.55a.16.16,0,0,0,.15.16h0a.16.16,0,0,0,.16-.16,4.14,4.14,0,0,0-1-3,4.22,4.22,0,0,0-3-1.33.16.16,0,0,0,0,.32A4.72,4.72,0,0,1,14.4,8a3.44,3.44,0,0,1,1.17.85A3.83,3.83,0,0,1,16.51,11.55Z"/><path class="cls-1" d="M12.29,5.94a6.14,6.14,0,0,1,2.27.43,5.63,5.63,0,0,1,1.86,1.25,5.42,5.42,0,0,1,1.25,2,7.63,7.63,0,0,1,.43,2.59.16.16,0,0,0,.16.16h0a.16.16,0,0,0,.16-.16A8,8,0,0,0,18,9.46a5.71,5.71,0,0,0-1.32-2.08A6,6,0,0,0,12.3,5.62h0a.16.16,0,0,0,0,.32Z"/></svg>