<svg id="Isolation_Mode" data-name="Isolation Mode" xmlns="http://www.w3.org/2000/svg" width="24" height="20.24" viewBox="0 0 24 20.24"><defs><style>.cls-1{fill:#00aeef;fill-rule:evenodd;}</style></defs><title>icon-tele</title><path class="cls-1" d="M636.06,113c.39.3,1.12,1,1.91.75s1.17-3.08,1.38-4.07c.33-1.57.65-3,.95-4.53,2.55-13.44,4.25-12.87-4-9.69-2.67,1-5.18,2-7.85,3s-5.3,2-7.83,3.06c-.49.2-4,1.31-1.09,2.19,1.39.42,2.73.86,4.15,1.3,1.16.36,1.07.11,1.4,1.32l1.58,5.28c.19.54.11.61.45.88,1.12.61,2.95-2.53,4.16-3Z" transform="translate(-618.39 -93.6)"/></svg>