<svg id="_1" data-name="1" xmlns="http://www.w3.org/2000/svg" width="23" height="23.39" viewBox="0 0 23 23.39"><defs><style>.cls-1{fill:#37dd37;fill-rule:evenodd;}</style></defs><title>icon-whats</title><path class="cls-1" d="M2.78,20.59c.2-1,1.35-3,.93-3.86A11,11,0,0,1,2.26,13.1a9.94,9.94,0,0,1,2-7.85,9.49,9.49,0,0,1,14-.76C24.8,10.7,19.67,22,10.57,21a9.46,9.46,0,0,1-3.77-1.3c-.86-.44-2.39.61-4,.9ZM0,23.39c1.22-.24,3.41-1.06,4.67-1.47s1.1-.69,2.35-.11a9.4,9.4,0,0,0,2.34.77C18.55,24.53,25.66,15,22,6.82A11.29,11.29,0,0,0,2.59,4.57,11.66,11.66,0,0,0,.7,14.28c.93,3.7,1.66,1.9.77,4.57A40.78,40.78,0,0,0,0,23.39Z"/><path class="cls-1" d="M17.39,14.24a6.52,6.52,0,0,0-2.8-1.43c-.62.46-.64,1-1.42,1.43C11.65,13.75,9.29,12,9,10.49c.88-1.32,1.23-.77.45-2.65a10.82,10.82,0,0,0-.6-1.35,1.42,1.42,0,0,0-1.7.1c-2.92,2.64,1.71,8.24,5.07,9.47a5.23,5.23,0,0,0,3.28.55A2.24,2.24,0,0,0,17.39,14.24Z"/></svg>