<svg id="Isolation_Mode" data-name="Isolation Mode" xmlns="http://www.w3.org/2000/svg" width="70.2mm" height="16.02mm" viewBox="0 0 199 45.42"><defs><style>.cls-1{fill:none;}.cls-2{fill:#fff;}.cls-3{fill:#3c3;}</style></defs><title>logo-top</title><path class="cls-1" d="M65.71,28.9A9.54,9.54,0,0,0,60.58,30,3.73,3.73,0,0,0,59,33.31,4.26,4.26,0,0,0,59.31,35a3,3,0,0,0,1.17,1.32,6.42,6.42,0,0,0,2.25.83,18.51,18.51,0,0,0,3.55.29,30.87,30.87,0,0,0,3.78-.18q1.4-.18,1.87-.29V29.42q-.52-.1-1.94-.31A32.28,32.28,0,0,0,65.71,28.9Z"/><path class="cls-2" d="M171.06,3.32a3.54,3.54,0,0,0-3.58,3.58,3.58,3.58,0,1,0,7.15,0,3.54,3.54,0,0,0-3.58-3.58Z"/><rect class="cls-2" x="180.6" y="3.54" width="5.91" height="37.5"/><rect class="cls-2" x="168.11" y="14.99" width="5.91" height="26.05"/><rect class="cls-2" x="193.09" y="3.54" width="5.91" height="37.5"/><path class="cls-2" d="M128.69,36.06a8.19,8.19,0,0,1-2.8.47,7.56,7.56,0,0,1-1.79-.21,3.81,3.81,0,0,1-1.5-.73,3.44,3.44,0,0,1-1-1.37,5.7,5.7,0,0,1-.36-2.21V20.44h10.85V15H121.23V7.53h-5.91V33.21a8.44,8.44,0,0,0,2.33,6.2q2.33,2.36,6.89,2.36a14.27,14.27,0,0,0,3-.29,16.36,16.36,0,0,0,2.44-.7,10.81,10.81,0,0,0,1.84-.88q.75-.47,1.17-.78l-2.38-3.94A7.9,7.9,0,0,1,128.69,36.06Z"/><path class="cls-2" d="M74,16.76a12.2,12.2,0,0,0-4.33-1.89,24.15,24.15,0,0,0-5.57-.6,23.38,23.38,0,0,0-4.2.31l-.69.15L60,19.46A15.76,15.76,0,0,1,64,19a18.34,18.34,0,0,1,3.21.26,6.66,6.66,0,0,1,2.49.93,4.65,4.65,0,0,1,1.63,1.87,6.71,6.71,0,0,1,.6,3q-.88-.1-2.64-.23t-3.73-.13a26.48,26.48,0,0,0-5.81.54,10.33,10.33,0,0,0-3.86,1.63,6.18,6.18,0,0,0-2.13,2.7,10,10,0,0,0-.65,3.74,9.3,9.3,0,0,0,.54,3.14,6,6,0,0,0,2,2.7,11.29,11.29,0,0,0,4,1.87,25.72,25.72,0,0,0,6.61.7q2,0,3.89-.1t3.37-.23q1.5-.13,2.62-.26t1.63-.23V25.32a11.89,11.89,0,0,0-1-5.14A8.72,8.72,0,0,0,74,16.76ZM71.93,37q-.47.1-1.87.29a30.87,30.87,0,0,1-3.78.18,18.51,18.51,0,0,1-3.55-.29,6.42,6.42,0,0,1-2.25-.83A3,3,0,0,1,59.31,35,4.26,4.26,0,0,1,59,33.31,3.73,3.73,0,0,1,60.58,30a9.54,9.54,0,0,1,5.13-1.06,32.28,32.28,0,0,1,4.28.21q1.43.21,1.94.31Z"/><path class="cls-2" d="M105.6,17.2a11.68,11.68,0,0,0-4-2.18,16.47,16.47,0,0,0-5.08-.75,16.22,16.22,0,0,0-5.05.75,11.72,11.72,0,0,0-4,2.18,10.11,10.11,0,0,0-2.64,3.48,10.83,10.83,0,0,0-1,4.64V41h5.91V26.82a7.7,7.7,0,0,1,1.68-5.37,7.82,7.82,0,0,1,10.08,0,7.62,7.62,0,0,1,1.71,5.37V41h5.91V25.32a11.09,11.09,0,0,0-.93-4.64A9.84,9.84,0,0,0,105.6,17.2Z"/><path class="cls-2" d="M158.83,16.89a9.62,9.62,0,0,0-3.45-2,13.62,13.62,0,0,0-4.38-.67,11.58,11.58,0,0,0-5.39,1.09,10.13,10.13,0,0,0-3.11,2.33V3.54h-5.91V41h5.91v-14a8,8,0,0,1,1.79-5.42,6.67,6.67,0,0,1,5.31-2q3.47,0,4.9,1.76a8.11,8.11,0,0,1,1.43,5.19V41h5.91V24.8a12.56,12.56,0,0,0-.78-4.62A8.7,8.7,0,0,0,158.83,16.89Z"/><path class="cls-2" d="M35.94,34.72a17.7,17.7,0,0,0-2.65-20.49L26,40.92a6.62,6.62,0,0,1-1.43,2.6c-.13.15-.28.3-.43.44,9.48-.49,16.67-2.79,16.67-5.57C40.77,37,38.95,35.7,35.94,34.72Z"/><path class="cls-2" d="M20.38,35.05c1.12,0,1.65-1.1,2-2.12l7-21.88a17.64,17.64,0,0,0-17.87,0l7,21.88C18.73,34,19.26,35,20.38,35.05Z"/><path class="cls-2" d="M14.8,40.92,7.48,14.23A17.7,17.7,0,0,0,4.83,34.72C1.82,35.7,0,37,0,38.38c0,2.78,7.18,5.08,16.67,5.57-.15-.14-.29-.29-.43-.44A6.62,6.62,0,0,1,14.8,40.92Z"/><path class="cls-3" d="M26,40.92l7.32-26.69L36.76,1.55,32.83,0,29.32,11.05l-7,21.88c-.32,1-.86,2.11-2,2.12s-1.65-1.1-2-2.12l-7-21.88L7.93,0,4,1.55,7.48,14.23,14.8,40.92a6.62,6.62,0,0,0,1.43,2.6c.13.15.28.3.43.44a5.44,5.44,0,0,0,7.44,0c.15-.14.29-.29.43-.44A6.62,6.62,0,0,0,26,40.92Z"/></svg>